<?xml version="1.0" encoding="utf-8"?>
<!-- Generator: Adobe Illustrator 16.0.0, SVG Export Plug-In . SVG Version: 6.00 Build 0)  -->
<!DOCTYPE svg PUBLIC "-//W3C//DTD SVG 1.1//EN" "http://www.w3.org/Graphics/SVG/1.1/DTD/svg11.dtd">
<svg version="1.1" id="Ebene_1" xmlns="http://www.w3.org/2000/svg" xmlns:xlink="http://www.w3.org/1999/xlink" x="0px" y="0px"
	 width="113.388px" height="113.39px" viewBox="0 0 113.388 113.39" enable-background="new 0 0 113.388 113.39"
	 xml:space="preserve">
<g>
	<g>
		<path fill="#FFFFFF" d="M100.798,43.814c-0.033-0.108-0.061-0.216-0.094-0.325c-0.385-1.288-0.834-2.562-1.336-3.82
			c-0.059-0.144-0.111-0.292-0.172-0.437c-0.5-1.214-1.059-2.41-1.666-3.588c-0.09-0.171-0.174-0.345-0.264-0.514
			c-0.199-0.374-0.408-0.742-0.617-1.11l5.785-11.758L90.798,10.625l-11.887,5.849c-0.219-0.122-0.438-0.239-0.656-0.357
			c-0.172-0.091-0.344-0.174-0.516-0.264c-1.176-0.607-2.371-1.167-3.588-1.666c-0.145-0.059-0.291-0.114-0.438-0.173
			c-1.256-0.501-2.529-0.951-3.816-1.336c-0.109-0.032-0.221-0.061-0.328-0.093c-0.051-0.016-0.1-0.029-0.148-0.042L65.152,0H48.693
			l-4.222,12.403c-0.218,0.061-0.437,0.123-0.654,0.186c-0.11,0.032-0.22,0.061-0.329,0.093c-1.288,0.385-2.56,0.835-3.818,1.336
			c-0.144,0.059-0.292,0.112-0.437,0.173c-1.216,0.499-2.412,1.059-3.588,1.666c-0.171,0.087-0.343,0.173-0.512,0.262
			c-0.22,0.118-0.44,0.237-0.659,0.356l-11.887-5.849L10.95,22.265l5.786,11.758c-0.208,0.368-0.417,0.734-0.617,1.108
			c-0.091,0.171-0.176,0.345-0.266,0.518c-0.607,1.177-1.167,2.372-1.664,3.586c-0.059,0.145-0.114,0.291-0.173,0.437
			c-0.501,1.258-0.951,2.532-1.336,3.82c-0.032,0.108-0.061,0.216-0.093,0.324c-0.064,0.218-0.125,0.438-0.186,0.659L0,48.697
			v16.458l12.543,4.27c0.015,0.052,0.028,0.103,0.043,0.151c0.031,0.108,0.059,0.217,0.091,0.322
			c0.385,1.289,0.835,2.563,1.336,3.82c0.059,0.145,0.112,0.293,0.173,0.438c0.499,1.214,1.059,2.409,1.666,3.588
			c0.089,0.17,0.173,0.346,0.264,0.516c0.199,0.374,0.408,0.742,0.617,1.108l-5.786,11.758l11.638,11.638l11.887-5.848
			c0.218,0.121,0.437,0.238,0.656,0.356c0.171,0.091,0.343,0.175,0.516,0.264c1.177,0.607,2.372,1.167,3.588,1.666
			c0.144,0.06,0.291,0.114,0.437,0.173c1.258,0.501,2.532,0.951,3.82,1.336c0.108,0.032,0.216,0.061,0.325,0.094
			c0.051,0.015,0.101,0.027,0.152,0.043l4.27,12.543h16.457l4.223-12.4c0.221-0.061,0.439-0.123,0.658-0.186
			c0.109-0.033,0.217-0.062,0.326-0.094c1.287-0.385,2.561-0.835,3.818-1.336c0.145-0.059,0.293-0.111,0.438-0.173
			c1.215-0.499,2.41-1.058,3.586-1.664c0.174-0.089,0.348-0.175,0.518-0.266c0.221-0.118,0.439-0.235,0.656-0.356l11.887,5.848
			l11.639-11.638l-5.785-11.758c0.209-0.368,0.416-0.736,0.617-1.11c0.09-0.168,0.174-0.342,0.262-0.512
			c0.607-1.179,1.166-2.375,1.666-3.589c0.059-0.144,0.113-0.29,0.172-0.437c0.502-1.258,0.951-2.531,1.336-3.82
			c0.033-0.105,0.061-0.216,0.092-0.322c0.064-0.219,0.127-0.438,0.188-0.658l12.4-4.223V48.239l-12.543-4.27
			C100.826,43.914,100.814,43.863,100.798,43.814z M63.345,88.671c-0.029,0.006-0.055,0.016-0.084,0.021
			c-0.908,0.186-1.84,0.314-2.773,0.424c-0.162,0.02-0.322,0.056-0.484,0.072c-1.09,0.11-2.191,0.168-3.31,0.168
			c-1.118,0-2.22-0.058-3.31-0.168c-0.163-0.017-0.323-0.053-0.486-0.072c-0.934-0.107-1.863-0.236-2.772-0.424
			c-0.028-0.006-0.057-0.016-0.087-0.021c-12.68-2.636-22.688-12.645-25.324-25.324c-0.006-0.027-0.015-0.057-0.021-0.087
			c-0.186-0.909-0.315-1.837-0.425-2.772c-0.019-0.163-0.055-0.322-0.072-0.485c-0.11-1.089-0.167-2.192-0.167-3.31
			c0-1.118,0.057-2.22,0.167-3.31c0.017-0.163,0.053-0.322,0.072-0.486c0.108-0.935,0.237-1.863,0.425-2.772
			c0.006-0.028,0.015-0.055,0.021-0.083c2.636-12.689,12.653-22.703,25.342-25.331c0.023-0.003,0.044-0.011,0.067-0.017
			c0.917-0.188,1.854-0.319,2.795-0.427c0.156-0.017,0.308-0.053,0.463-0.068c1.089-0.11,2.194-0.167,3.311-0.167
			c1.119,0,2.223,0.057,3.313,0.167c0.154,0.015,0.307,0.051,0.463,0.068c0.941,0.108,1.877,0.239,2.795,0.427
			c0.021,0.004,0.043,0.012,0.066,0.017c12.691,2.63,22.707,12.644,25.342,25.331c0.006,0.029,0.016,0.055,0.021,0.083
			c0.186,0.909,0.314,1.839,0.424,2.772c0.02,0.164,0.055,0.323,0.072,0.486c0.111,1.089,0.168,2.192,0.168,3.31
			c0,1.117-0.057,2.221-0.168,3.31c-0.018,0.163-0.053,0.322-0.072,0.485c-0.107,0.934-0.236,1.863-0.424,2.772
			c-0.006,0.028-0.016,0.058-0.021,0.087C86.037,76.029,76.027,86.038,63.345,88.671z"/>
		<circle fill="#FFFFFF" cx="56.693" cy="56.693" r="4.981"/>
	</g>
</g>
</svg>
